HIERARCHY
ROOT Hips
{
  OFFSET 5.84602e-005 68.8428 3.50346
  CHANNELS 6 Xposition Yposition Zposition Zrotation Xrotation Yrotation
  JOINT Spine
  {
    OFFSET 0 8.597 -4.6522
    CHANNELS 3 Zrotation Xrotation Yrotation
    JOINT Spine1
    {
      OFFSET 0 7.8454 0.4098
      CHANNELS 3 Zrotation Xrotation Yrotation
      JOINT Spine2
      {
        OFFSET 0 9.7078 -2.1609
        CHANNELS 3 Zrotation Xrotation Yrotation
        JOINT Neck
        {
          OFFSET 0 21.8761 -0.4549
          CHANNELS 3 Zrotation Xrotation Yrotation
          JOINT Head
          {
            OFFSET 0 12.3537 3.3602
            CHANNELS 3 Zrotation Xrotation Yrotation
            End Site
            {
              OFFSET 0.0001 18.9506 0.5657
            }
          }
        }
        JOINT LeftShoulder
        {
          OFFSET 2.2086 21.1115 7.2329
          CHANNELS 3 Zrotation Xrotation Yrotation
          JOINT LeftArm
          {
            OFFSET 13.1193 3.0282 -4.8998
            CHANNELS 3 Zrotation Xrotation Yrotation
            JOINT LeftForeArm
            {
              OFFSET 27.4081 -0.0973053 -0.2375
              CHANNELS 3 Zrotation Xrotation Yrotation
              JOINT LeftHand
              {
                OFFSET 22.8641 0.0662994 -0.1369
                CHANNELS 3 Zrotation Xrotation Yrotation
                JOINT LeftHandIndex1
                {
                  OFFSET 8.8614 0.775009 2.4612
                  CHANNELS 3 Zrotation Xrotation Yrotation
                  JOINT LeftHandIndex2
                  {
                    OFFSET 3.3146 -0.808304 0.5841
                    CHANNELS 3 Zrotation Xrotation Yrotation
                    JOINT LeftHandIndex3
                    {
                      OFFSET 2.2628 -0.552002 0.3989
                      CHANNELS 3 Zrotation Xrotation Yrotation
                      End Site
                      {
                        OFFSET 1.6102 -0.4807 0.2612
                      }
                    }
                  }
                }
                JOINT LeftHandMiddle1
                {
                  OFFSET 8.9937 0.895004 0.2143
                  CHANNELS 3 Zrotation Xrotation Yrotation
                  JOINT LeftHandMiddle2
                  {
                    OFFSET 4.0984 0.0113983 -0.0242
                    CHANNELS 3 Zrotation Xrotation Yrotation
                    JOINT LeftHandMiddle3
                    {
                      OFFSET 2.2716 0.00689697 -0.0138001
                      CHANNELS 3 Zrotation Xrotation Yrotation
                      End Site
                      {
                        OFFSET 2.0404 -0.1441 0.0027
                      }
                    }
                  }
                }
                JOINT LeftHandRing1
                {
                  OFFSET 8.5234 0.597198 -2.0164
                  CHANNELS 3 Zrotation Xrotation Yrotation
                  JOINT LeftHandRing2
                  {
                    OFFSET 3.7188 -0.188293 -0.2328
                    CHANNELS 3 Zrotation Xrotation Yrotation
                    JOINT LeftHandRing3
                    {
                      OFFSET 2.1191 -0.106598 -0.1332
                      CHANNELS 3 Zrotation Xrotation Yrotation
                      End Site
                      {
                        OFFSET 1.8737 -0.2304 -0.0886
                      }
                    }
                  }
                }
                JOINT LeftHandPinky1
                {
                  OFFSET 7.9094 -0.601089 -3.4825
                  CHANNELS 3 Zrotation Xrotation Yrotation
                  JOINT LeftHandPinky2
                  {
                    OFFSET 2.2874 -0.477005 -0.6314
                    CHANNELS 3 Zrotation Xrotation Yrotation
                    JOINT LeftHandPinky3
                    {
                      OFFSET 1.6774 -0.349396 -0.4633
                      CHANNELS 3 Zrotation Xrotation Yrotation
                      End Site
                      {
                        OFFSET 1.4888 -0.4091 -0.3416
                      }
                    }
                  }
                }
                JOINT LeftHandThumb1
                {
                  OFFSET 1.833 -1.3875 1.3896
                  CHANNELS 3 Zrotation Xrotation Yrotation
                  JOINT LeftHandThumb2
                  {
                    OFFSET 3.4129 -1.121 2.5732
                    CHANNELS 3 Zrotation Xrotation Yrotation
                    JOINT LeftHandThumb3
                    {
                      OFFSET 2.2474 -0.804199 1.6192
                      CHANNELS 3 Zrotation Xrotation Yrotation
                      End Site
                      {
                        OFFSET 1.6527 -0.5689 1.1317
                      }
                    }
                  }
                }
              }
            }
          }
        }
        JOINT RightShoulder
        {
          OFFSET -2.2086 21.1115 7.2329
          CHANNELS 3 Zrotation Xrotation Yrotation
          JOINT RightArm
          {
            OFFSET -13.1216 3.0287 -4.9007
            CHANNELS 3 Zrotation Xrotation Yrotation
            JOINT RightForeArm
            {
              OFFSET -27.4081 -0.0973053 -0.2375
              CHANNELS 3 Zrotation Xrotation Yrotation
              JOINT RightHand
              {
                OFFSET -22.8641 0.0664063 -0.1369
                CHANNELS 3 Zrotation Xrotation Yrotation
                JOINT RightHandIndex1
                {
                  OFFSET -8.8614 0.774994 2.4612
                  CHANNELS 3 Zrotation Xrotation Yrotation
                  JOINT RightHandIndex2
                  {
                    OFFSET -3.3146 -0.808304 0.5841
                    CHANNELS 3 Zrotation Xrotation Yrotation
                    JOINT RightHandIndex3
                    {
                      OFFSET -2.2628 -0.552002 0.3989
                      CHANNELS 3 Zrotation Xrotation Yrotation
                      End Site
                      {
                        OFFSET -1.6102 -0.4807 0.2612
                      }
                    }
                  }
                }
                JOINT RightHandMiddle1
                {
                  OFFSET -8.9937 0.894989 0.2143
                  CHANNELS 3 Zrotation Xrotation Yrotation
                  JOINT RightHandMiddle2
                  {
                    OFFSET -4.0984 0.0113983 -0.0242
                    CHANNELS 3 Zrotation Xrotation Yrotation
                    JOINT RightHandMiddle3
                    {
                      OFFSET -2.2716 0.00691223 -0.0138001
                      CHANNELS 3 Zrotation Xrotation Yrotation
                      End Site
                      {
                        OFFSET -2.0404 -0.1441 0.0027
                      }
                    }
                  }
                }
                JOINT RightHandRing1
                {
                  OFFSET -8.5234 0.597198 -2.0164
                  CHANNELS 3 Zrotation Xrotation Yrotation
                  JOINT RightHandRing2
                  {
                    OFFSET -3.7188 -0.188309 -0.2328
                    CHANNELS 3 Zrotation Xrotation Yrotation
                    JOINT RightHandRing3
                    {
                      OFFSET -2.1191 -0.106598 -0.1332
                      CHANNELS 3 Zrotation Xrotation Yrotation
                      End Site
                      {
                        OFFSET -1.8737 -0.2304 -0.0886
                      }
                    }
                  }
                }
                JOINT RightHandPinky1
                {
                  OFFSET -7.9094 -0.601105 -3.4825
                  CHANNELS 3 Zrotation Xrotation Yrotation
                  JOINT RightHandPinky2
                  {
                    OFFSET -2.2874 -0.477005 -0.6314
                    CHANNELS 3 Zrotation Xrotation Yrotation
                    JOINT RightHandPinky3
                    {
                      OFFSET -1.6774 -0.349396 -0.4633
                      CHANNELS 3 Zrotation Xrotation Yrotation
                      End Site
                      {
                        OFFSET -1.4888 -0.4091 -0.3416
                      }
                    }
                  }
                }
                JOINT RightHandThumb1
                {
                  OFFSET -1.833 -1.38751 1.3896
                  CHANNELS 3 Zrotation Xrotation Yrotation
                  JOINT RightHandThumb2
                  {
                    OFFSET -3.41299 -1.12099 2.5732
                    CHANNELS 3 Zrotation Xrotation Yrotation
                    JOINT RightHandThumb3
                    {
                      OFFSET -2.24741 -0.804108 1.6192
                      CHANNELS 3 Zrotation Xrotation Yrotation
                      End Site
                      {
                        OFFSET -1.6527 -0.5689 1.1317
                      }
                    }
                  }
                }
              }
            }
          }
        }
      }
    }
  }
  JOINT RightUpLeg
  {
    OFFSET -9.1966 3.8861 -0.7581
    CHANNELS 3 Zrotation Xrotation Yrotation
    JOINT RightLeg
    {
      OFFSET -0.7359 -41.0265 0
      CHANNELS 3 Zrotation Xrotation Yrotation
      JOINT RightFoot
      {
        OFFSET 0 -40.2855 0
        CHANNELS 3 Zrotation Xrotation Yrotation
        JOINT RightToeBase
        {
          OFFSET 0 -5.6122 11.7359
          CHANNELS 3 Zrotation Xrotation Yrotation
          End Site
          {
            OFFSET 0 0 7.8731
          }
        }
      }
    }
  }
  JOINT LeftUpLeg
  {
    OFFSET 9.1965 3.8864 -0.7581
    CHANNELS 3 Zrotation Xrotation Yrotation
    JOINT LeftLeg
    {
      OFFSET 0.7359 -41.0268 0
      CHANNELS 3 Zrotation Xrotation Yrotation
      JOINT LeftFoot
      {
        OFFSET 0 -40.2855 0
        CHANNELS 3 Zrotation Xrotation Yrotation
        JOINT LeftToeBase
        {
          OFFSET 0 -5.6122 11.7359
          CHANNELS 3 Zrotation Xrotation Yrotation
          End Site
          {
            OFFSET 0 0 7.8731
          }
        }
      }
    }
  }
}
MOTION
Frames:	4
Frame Time:	0.0333333
6.34803 15.2026 -20.1398 0 0 -67.0038 0.0167721 1.94442 0.434164 0.0188243 3.88897 0.868502 0.018824 3.88897 0.868495 -5.02844 21.9213 0.774212 0.648698 -4.48803 -0.0126714 -6.28338 4.48576 -31.5495 -9.95026 5.81151 -32.1782 -8.13904 10.8925 -60.1768 -0.646843 31.0546 1.0641 -7.95139e-016 1.59028e-015 -0 -7.95139e-015 1.59028e-015 -0 -4.77083e-015 0 -0 -7.95139e-016 1.59028e-015 -0 -0.014624 -8.96304e-005 7.98186e-008 2.78299e-015 -1.59028e-015 -3.18055e-015 -7.95139e-016 1.59028e-015 -0 -0.0187954 -0.00117843 5.84158e-005 5.56597e-015 0 -3.18055e-015 -7.95139e-016 1.59028e-015 -0 -0.0122783 -0.00324942 0.000676938 3.57812e-015 0 -6.36111e-015 -7.95139e-016 1.59028e-015 -0 -7.95139e-015 1.59028e-015 -0 -4.77083e-015 0 -0 30.7078 4.07193 15.1791 -45.1953 -44.9145 -18.5514 17.9815 5.62556 26.0187 -49.1096 -16.8091 -9.83305 1.59028e-015 3.97569e-015 -6.36111e-015 8.82781e-032 1.59028e-015 -3.18055e-015 1.59028e-015 1.59028e-015 -6.36111e-015 1.59028e-015 3.97569e-015 -6.36111e-015 0.0149531 -9.76068e-005 -1.56661e-006 -0 -7.95139e-016 -0 1.59028e-015 3.97569e-015 -6.36111e-015 0.0190153 -0.00119754 -5.81109e-005 -6.36111e-015 2.38542e-015 3.18055e-015 1.59028e-015 3.97569e-015 -6.36111e-015 0.0122014 -0.00323223 -0.000676675 4.77083e-015 -1.59028e-015 -3.18055e-015 1.59028e-015 3.97569e-015 -6.36111e-015 8.82781e-032 1.59028e-015 -3.18055e-015 1.59028e-015 1.59028e-015 -6.36111e-015 -26.2588 -46.4369 -26.5264 -163.685 31.1977 167.466 -6.41217 51.6331 -7.74172 7.54044e-007 1.46337e-006 -3.45195e-007 59.8687 -21.5703 55.4704 174.916 28.2957 -169.519 3.29883 52.3675 10.7555 -2.50178e-006 1.23708e-006 -2.49272e-006 
6.34803 15.2026 -20.1398 0 0 -67.0038 0.0105553 1.94403 0.109872 0.0174079 3.8881 0.219585 0.0174072 3.8881 0.219591 -5.21284 22.647 0.838801 0.670448 -4.63753 -0.0120889 -5.80975 4.39542 -30.0084 -9.95026 5.81151 -32.1783 -8.22542 11.0426 -61.1737 -0.46365 31.0495 0.94534 2.35724e-008 -1.18514e-006 1.45676e-006 -2.61055e-007 3.78948e-008 -1.06431e-006 -1.35483e-006 -1.50657e-006 2.40287e-006 2.35724e-008 -1.18514e-006 1.45676e-006 -0.0146227 -9.07e-005 -1.05198e-006 -1.35668e-006 -1.50689e-006 2.40268e-006 2.35724e-008 -1.18514e-006 1.45676e-006 -0.0187824 -0.00117744 5.93628e-005 -1.35718e-006 -1.50711e-006 2.40265e-006 2.35724e-008 -1.18514e-006 1.45676e-006 -0.0123053 -0.00325717 0.000679666 2.35699e-008 -1.1853e-006 1.45663e-006 2.35724e-008 -1.18514e-006 1.45676e-006 -2.61055e-007 3.78948e-008 -1.06431e-006 -1.35483e-006 -1.50657e-006 2.40287e-006 30.6965 4.09553 15.0234 -52.5834 -47.5538 -22.6432 17.9862 5.62596 26.0257 -48.2213 -16.9614 -9.29721 1.59028e-015 -3.18055e-015 -0 -1.59028e-015 -2.38542e-015 6.36111e-015 -2.38542e-015 -3.18055e-015 3.18055e-015 1.59028e-015 -3.18055e-015 -0 0.0149873 -8.81078e-005 1.94091e-007 7.95139e-016 7.95139e-016 -0 1.59028e-015 -3.18055e-015 -0 0.0190431 -0.00119105 -6.39021e-005 -7.95139e-016 0 -0 1.59028e-015 -3.18055e-015 -0 0.012211 -0.00323401 -0.000674168 7.95139e-016 -2.38542e-015 -6.36111e-015 1.59028e-015 -3.18055e-015 -0 -1.59028e-015 -2.38542e-015 6.36111e-015 -2.38542e-015 -3.18055e-015 3.18055e-015 -26.2588 -46.4369 -26.5264 -163.685 31.1977 167.466 -6.41217 51.6331 -7.74172 7.54044e-007 1.46337e-006 -3.45195e-007 59.8687 -21.5704 55.4704 174.917 28.2957 -169.519 3.2988 52.3676 10.7555 -6.36111e-015 0 -3.18055e-015 
6.34803 15.2026 -20.1398 0 0 -67.0038 0.0043532 1.94362 -0.214204 0.0160019 3.88723 -0.428915 0.016 3.88723 -0.428905 -5.39912 23.3728 0.90627 0.692203 -4.787 -0.0114317 -5.33521 4.318 -28.4709 -9.95027 5.81151 -32.1783 -8.30907 11.194 -62.1698 -0.280471 31.044 0.826608 -3.18055e-015 3.18055e-015 -3.18055e-015 0 3.18055e-015 -0 -2.38542e-015 3.18055e-015 -3.18055e-015 -3.18055e-015 3.18055e-015 -3.18055e-015 -0.0145668 -8.90628e-005 -3.84582e-006 -1.59028e-015 3.18055e-015 -3.18055e-015 -3.18055e-015 3.18055e-015 -3.18055e-015 -0.0186931 -0.00117266 5.79574e-005 7.95139e-015 0 -0 -3.18055e-015 3.18055e-015 -3.18055e-015 -0.012215 -0.00323253 0.000672009 6.36111e-015 3.18055e-015 -6.36111e-015 -3.18055e-015 3.18055e-015 -3.18055e-015 0 3.18055e-015 -0 -2.38542e-015 3.18055e-015 -3.18055e-015 30.6852 4.11918 14.8677 -60.6531 -49.8007 -27.4539 17.9909 5.62636 26.0327 -47.3316 -17.1056 -8.759 -1.59028e-015 -1.19271e-015 3.18055e-015 -3.97569e-016 -3.97569e-016 -6.36111e-015 -3.97569e-016 1.19271e-015 -3.18055e-015 -1.59028e-015 -1.19271e-015 3.18055e-015 0.0150099 -8.96662e-005 1.63079e-006 -3.97569e-016 7.95139e-016 3.18055e-015 -1.59028e-015 -1.19271e-015 3.18055e-015 0.0189893 -0.00119062 -5.53061e-005 -3.97569e-016 7.95139e-016 9.54166e-015 -1.59028e-015 -1.19271e-015 3.18055e-015 0.0122054 -0.00323336 -0.000674948 -3.97569e-016 -3.97569e-016 -0 -1.59028e-015 -1.19271e-015 3.18055e-015 -3.97569e-016 -3.97569e-016 -6.36111e-015 -3.97569e-016 1.19271e-015 -3.18055e-015 -26.2588 -46.4369 -26.5264 -163.685 31.1977 167.466 -6.41214 51.633 -7.74174 1.62915e-006 1.89392e-008 -3.56607e-006 59.8687 -21.5704 55.4704 174.917 28.2957 -169.519 3.2988 52.3676 10.7555 -6.36111e-015 0 -3.18055e-015 
6.34803 15.2026 -20.1398 0 0 -67.0038 -0.00184536 1.94316 -0.538017 0.0146046 3.8863 -1.07689 0.0146022 3.8863 -1.0769 -5.58691 24.0965 0.97659 0.713967 -4.9365 -0.0107114 -4.86029 4.25361 -26.9377 -9.95027 5.81151 -32.1783 -8.38998 11.3466 -63.1649 -0.0973408 31.0382 0.707912 3.18055e-015 1.59028e-015 -3.18055e-015 4.77083e-015 0 6.36111e-015 7.95139e-016 -1.59028e-015 3.18055e-015 3.18055e-015 1.59028e-015 -3.18055e-015 -0.0145975 -9.00086e-005 1.92321e-006 3.88708e-007 4.49799e-007 -8.20384e-007 3.18055e-015 1.59028e-015 -3.18055e-015 -0.0187952 -0.00118 5.69735e-005 -2.38542e-015 -6.36111e-015 6.36111e-015 3.18055e-015 1.59028e-015 -3.18055e-015 -0.012301 -0.00325614 0.000677906 -7.95139e-016 3.18055e-015 -3.18055e-015 3.18055e-015 1.59028e-015 -3.18055e-015 4.77083e-015 0 6.36111e-015 7.95139e-016 -1.59028e-015 3.18055e-015 30.674 4.14296 14.712 -69.3471 -51.5607 -32.9304 17.9956 5.62676 26.0397 -46.4407 -17.2416 -8.2186 2.98177e-016 -3.97569e-016 -3.18055e-015 9.93923e-017 -3.97569e-016 -3.18055e-015 9.93923e-017 -3.97569e-016 -3.18055e-015 2.98177e-016 -3.97569e-016 -3.18055e-015 0.0149956 -9.34124e-005 -4.67571e-007 -4.96962e-016 4.96962e-016 3.18055e-015 2.98177e-016 -3.97569e-016 -3.18055e-015 0.0190053 -0.00118772 -6.11328e-005 0 0 -3.18055e-015 2.98177e-016 -3.97569e-016 -3.18055e-015 0.0122615 -0.00324414 -0.000674251 7.45443e-015 9.93923e-015 3.18055e-015 2.98177e-016 -3.97569e-016 -3.18055e-015 9.93923e-017 -3.97569e-016 -3.18055e-015 9.93923e-017 -3.97569e-016 -3.18055e-015 -26.2588 -46.4369 -26.5264 -163.685 31.1977 167.466 -6.41217 51.6331 -7.74172 7.54044e-007 1.46337e-006 -3.45195e-007 59.8687 -21.5704 55.4704 174.917 28.2957 -169.519 3.2988 52.3676 10.7555 -6.36111e-015 0 -3.18055e-015 
